# xmcd
#
# Track frame offsets:
#	150
#	12597
#	28189
#	39921
#	50466
#	62840
#	73739
#	84954
#	98083
#	109330
#
# Disc length: 1625 seconds
#
# Revision: 1
# Processed by: cddbd v1.5.2PL0 Copyright (c) Steve Scherf et al.
# Submitted via: audiograbber 1.83.01
#
DISCID=8106570a
DTITLE=Various Artist - The Greatest Country Music Collection Ever
DYEAR=2005
DGENRE=Country
TTITLE0=Johnny Cash - I Walk the Line
TTITLE1=Willie Nelson - Mamas Don't Let Your Babies Grow Up To Be Cowboys
TTITLE2=Patsy Cline - Walkin' After Midnight
TTITLE3=Waylon Jennings - Only Daddy That'll Walk the Line (live)
TTITLE4=Merle Haggard - Okie From Muskogee
TTITLE5=George Jones - Tender Years
TTITLE6=Marty Robbins - Singing the Blues
TTITLE7=Kenny Rogers and The First Edition - Ruby Don't Take Your Love To Town
TTITLE8=Conway Twitty - Hello Darlin'
TTITLE9=Hank Williams - Lovesick Blues (live)
EXTD=
EXTT0=
EXTT1=
EXTT2=
EXTT3=
EXTT4=
EXTT5=
EXTT6=
EXTT7=
EXTT8=
EXTT9=
PLAYORDER=
